<svg width="70" height="30" viewBox="0 0 70 30" fill="none" xmlns="http://www.w3.org/2000/svg">
<path d="M69.4673 5.10629C69.4673 7.6173 67.6551 9.70538 65.2675 10.133C64.9743 10.1845 64.6733 10.2126 64.3645 10.2126C61.5464 10.2126 59.2617 7.92629 59.2617 5.10629C59.2617 5.0782 59.2617 5.05011 59.2633 5.02358C59.2664 4.77232 59.2882 4.52574 59.3272 4.28541C59.3288 4.27917 59.3303 4.27137 59.3319 4.26512C59.3413 4.21519 59.3506 4.16369 59.3584 4.11375C59.36 4.10126 59.3631 4.09034 59.3646 4.07785C59.8419 1.751 61.8989 7.98467e-07 64.3645 7.98467e-07C67.1826 -0.0015598 69.4673 2.28472 69.4673 5.10629Z" fill="white"/>
<path d="M29.961 24.8953C29.961 25.1575 29.9408 25.4166 29.9018 25.6678V25.6725C29.8862 25.7568 29.8721 25.8395 29.8581 25.9238V25.9253C29.3809 28.2522 27.3239 30.0016 24.8567 30.0016C22.0386 30.0016 19.7539 27.7154 19.7539 24.8953C19.7539 22.453 21.4678 20.4102 23.7572 19.9077C23.7619 19.9077 23.765 19.9061 23.7697 19.9061C23.7713 19.9045 23.7728 19.9045 23.7744 19.9045C23.7775 19.9045 23.7791 19.903 23.7822 19.903C23.843 19.8905 23.9054 19.878 23.9678 19.8671C24.0301 19.8562 24.0925 19.8468 24.1549 19.8374C24.1565 19.8374 24.1596 19.8374 24.1611 19.8359C24.3888 19.8047 24.6212 19.7891 24.8567 19.7891C27.6763 19.7891 29.961 22.0753 29.961 24.8953Z" fill="white"/>
<path d="M65.2666 10.1327C64.964 10.1858 64.6615 10.2451 64.3636 10.3122C62.3721 10.7585 60.4975 11.5123 58.7914 12.5236C57.6373 13.2071 56.5613 14.0061 55.5803 14.9082C55.2013 15.2546 54.8364 15.6167 54.4871 15.9928C52.2258 18.4226 50.5851 21.4408 49.8163 24.7915C49.7539 25.0677 49.6962 25.347 49.6447 25.6295C49.69 25.358 49.7134 25.077 49.7134 24.7915C49.7134 22.4708 48.1663 20.5123 46.0485 19.8912C45.5931 19.757 45.1096 19.6852 44.6106 19.6852C44.4078 19.6852 44.2082 19.6977 44.0117 19.7195C44.2129 19.682 44.4125 19.6399 44.6106 19.5962C44.9849 19.5119 45.356 19.4167 45.7225 19.3122C47.1245 18.908 48.4611 18.3493 49.7134 17.6548C51.0842 16.8933 52.3536 15.9694 53.4937 14.9082C53.8368 14.5898 54.1674 14.2574 54.4871 13.9141C55.2294 13.1166 55.9047 12.2551 56.5036 11.3406C57.7481 9.44138 58.6651 7.3096 59.1766 5.02332C59.2312 4.77831 59.2811 4.53329 59.3263 4.28516C59.2873 4.52549 59.2655 4.77206 59.2624 5.02332C59.2608 5.04985 59.2608 5.07794 59.2608 5.10603C59.2608 7.92604 61.5455 10.2123 64.3636 10.2123C64.6724 10.2123 64.9734 10.1842 65.2666 10.1327Z" fill="white"/>
<path d="M49.7134 24.7899C49.7134 25.0755 49.69 25.3564 49.6448 25.6279C49.637 25.6701 49.6292 25.7138 49.6214 25.7575C49.4373 26.7219 48.9804 27.5896 48.3363 28.2794C47.4053 29.2735 46.0797 29.8962 44.6106 29.8962C41.7925 29.8962 39.5078 27.6099 39.5078 24.7899C39.5078 22.3694 41.1905 20.3422 43.4487 19.8162C43.4519 19.8162 43.455 19.8162 43.4581 19.8147C43.6374 19.7725 43.8184 19.7413 44.0039 19.7195C44.0071 19.7195 44.0086 19.7179 44.0117 19.7179C44.2082 19.6961 44.4079 19.6836 44.6106 19.6836C45.1096 19.6836 45.5931 19.7554 46.0485 19.8896C48.1663 20.5107 49.7134 22.4693 49.7134 24.7899Z" fill="white"/>
<path d="M45.2949 10.1892C45.0657 10.2313 44.8364 10.2797 44.6103 10.3296C42.7997 10.7369 41.0857 11.3986 39.5075 12.2757C39.325 12.3771 39.1441 12.4817 38.9663 12.5894C37.8076 13.2838 36.7284 14.0969 35.7443 15.0114C35.395 15.336 35.0582 15.6731 34.7338 16.0227C33.9977 16.817 33.3271 17.6723 32.7298 18.5821C31.4868 20.4798 30.5698 22.6116 30.0583 24.8947C30.0006 25.1507 29.9476 25.4082 29.9008 25.6672C29.9398 25.416 29.96 25.1569 29.96 24.8947C29.96 22.0747 27.6753 19.7884 24.8557 19.7884C24.6202 19.7884 24.3878 19.804 24.1602 19.8353C24.3941 19.7916 24.6249 19.7447 24.8557 19.6932C26.6663 19.2875 28.3818 18.6258 29.96 17.7487C30.1425 17.6473 30.3234 17.5427 30.5012 17.435C31.6615 16.7406 32.7423 15.9275 33.7263 15.0114C34.0756 14.6884 34.4109 14.3513 34.7338 14.0033C35.4714 13.2089 36.142 12.3553 36.7378 11.4455H36.7393V11.4439C37.9838 9.54465 38.9024 7.41287 39.4139 5.12659C39.4623 4.92059 39.5044 4.71147 39.5449 4.50391C39.52 4.70834 39.5075 4.9159 39.5075 5.12659C39.5075 7.94815 41.7922 10.2344 44.6103 10.2344C44.8426 10.2344 45.0703 10.2188 45.2949 10.1892Z" fill="white"/>
<path opacity="0.5" d="M29.961 5.125V17.7471C28.3828 18.6242 26.6673 19.2859 24.8567 19.6917C24.6259 19.7432 24.3951 19.79 24.1611 19.8337C24.1596 19.8352 24.1565 19.8352 24.1549 19.8352C24.0925 19.8446 24.0301 19.854 23.9678 19.8649C23.9054 19.8758 23.843 19.8883 23.7822 19.9008C23.7791 19.9008 23.7775 19.9023 23.7744 19.9023C23.7728 19.9023 23.7713 19.9023 23.7697 19.9039C23.765 19.9039 23.7619 19.9055 23.7572 19.9055C21.4678 20.408 19.7539 22.4508 19.7539 24.8931V12.2788C21.0093 11.5812 22.349 11.0194 23.7557 10.6136C24.119 10.5106 24.4855 10.4154 24.8567 10.3327C25.1312 10.2703 25.4072 10.2157 25.6848 10.1657C25.691 10.1657 25.6957 10.1642 25.702 10.1626C25.7331 10.1579 25.7659 10.1517 25.7971 10.1455C25.8267 10.1408 25.8563 10.1345 25.886 10.1298C28.2112 9.6523 29.961 7.59387 29.961 5.125Z" fill="white"/>
<path d="M69.4673 24.8953C69.4673 26.2421 68.9464 27.4688 68.0933 28.3817C67.1623 29.379 65.8351 30.0016 64.3645 30.0016C61.5464 30.0016 59.2617 27.7154 59.2617 24.8953C59.2617 22.0753 61.5464 19.7891 64.3645 19.7891C64.8667 19.7891 65.3517 19.8624 65.8102 19.9966V19.9982C67.9249 20.6209 69.4673 22.5779 69.4673 24.8953Z" fill="white"/>
<path opacity="0.5" d="M49.7134 5.125V17.7565C48.4611 18.451 47.1246 19.0097 45.7225 19.4139C45.356 19.5184 44.9849 19.6136 44.6106 19.6979C44.4125 19.7416 44.2129 19.7837 44.0117 19.8212C44.0086 19.8212 44.0071 19.8227 44.0039 19.8227C43.8184 19.8446 43.6374 19.8758 43.4581 19.9179C43.455 19.9195 43.4519 19.9195 43.4487 19.9195C41.1905 20.4454 39.5078 22.4726 39.5078 24.8931V12.2741C41.0861 11.3971 42.8 10.7354 44.6106 10.328C44.8367 10.2781 45.066 10.2297 45.2952 10.1876C45.2999 10.186 45.3046 10.186 45.3093 10.1845C45.4325 10.1689 45.5557 10.147 45.6773 10.1205C45.6804 10.1205 45.6836 10.1189 45.6867 10.1189C47.9885 9.62421 49.7134 7.5767 49.7134 5.125Z" fill="white"/>
<path d="M49.7134 5.12582C49.7134 7.57752 47.9885 9.62503 45.6867 10.1197C45.6836 10.1197 45.6804 10.1213 45.6773 10.1213C45.5557 10.1478 45.4325 10.1697 45.3093 10.1853C45.3046 10.1868 45.2999 10.1868 45.2952 10.1884C45.0707 10.2181 44.843 10.2337 44.6106 10.2337C41.7925 10.2337 39.5078 7.94739 39.5078 5.12582C39.5078 4.91514 39.5203 4.70758 39.5452 4.50314C39.5468 4.49377 39.5484 4.48441 39.5484 4.47505C39.5686 4.31899 39.5951 4.16605 39.6295 4.01467V4.01311C40.1363 1.72839 42.1746 0.0195312 44.6106 0.0195312C47.4287 0.0195312 49.7134 2.30581 49.7134 5.12582Z" fill="white"/>
<path d="M29.961 5.12582C29.961 7.59469 28.2112 9.65312 25.886 10.1307C25.8563 10.1353 25.8267 10.1416 25.7971 10.1463C25.7659 10.1525 25.7331 10.1588 25.702 10.1634C25.6957 10.165 25.691 10.1666 25.6848 10.1666C25.415 10.2103 25.139 10.2337 24.8567 10.2337C24.3608 10.2337 23.8804 10.1634 23.4282 10.0308C21.3056 9.41279 19.7539 7.45111 19.7539 5.12582C19.7539 4.95415 19.7617 4.78405 19.7789 4.6155C19.7789 4.61238 19.7804 4.6077 19.7804 4.60302C19.8054 4.35332 19.849 4.10831 19.9099 3.87109C19.9114 3.86329 19.913 3.85705 19.9145 3.84925C20.1329 3.00184 20.5617 2.23871 21.1434 1.62227C22.0745 0.635969 23.3938 0.0195312 24.8567 0.0195312C27.6763 0.0195313 29.961 2.30581 29.961 5.12582Z" fill="white"/>
<path d="M25.6835 10.1682C25.4059 10.2182 25.1299 10.2728 24.8554 10.3352C24.4843 10.4179 24.1178 10.5131 23.7544 10.6161C22.3477 11.0219 21.0081 11.5837 19.7526 12.2813C18.3896 13.0398 17.128 13.9589 15.9942 15.0124C15.6417 15.3385 15.3033 15.6772 14.9789 16.0283C14.2444 16.8195 13.5738 17.6747 12.9796 18.5814C11.7351 20.4807 10.8165 22.6109 10.305 24.8956C10.2458 25.1531 10.1943 25.4122 10.1459 25.6728C10.1849 25.42 10.2052 25.1594 10.2052 24.8956C10.2052 22.0756 7.9205 19.7894 5.10242 19.7894C4.8373 19.7894 4.57842 19.8096 4.32422 19.8487C4.58622 19.8018 4.8451 19.7488 5.10242 19.691C6.91304 19.2868 8.62696 18.6267 10.2052 17.7496C10.3892 17.6482 10.5701 17.5436 10.7495 17.4375C11.9113 16.7431 12.9921 15.9284 13.9777 15.0124C16.9018 12.2969 18.9791 8.6888 19.7776 4.61719C19.7604 4.78573 19.7526 4.95584 19.7526 5.1275C19.7526 7.4528 21.3044 9.41447 23.4269 10.0325C23.8792 10.1651 24.3595 10.2354 24.8554 10.2354C25.1377 10.2354 25.4137 10.2119 25.6835 10.1682Z" fill="white"/>
<path d="M10.2056 24.8953C10.2056 25.1591 10.1853 25.4197 10.1463 25.6725C10.1447 25.6913 10.1416 25.71 10.1369 25.7271C10.1276 25.7786 10.1182 25.8301 10.1104 25.8816C10.1073 25.8957 10.1042 25.9097 10.1026 25.9238C9.62542 28.2506 7.5684 30.0016 5.10278 30.0016C2.28471 30.0016 0 27.7154 0 24.8953C0 22.428 1.74979 20.3696 4.07349 19.8921C4.08909 19.8905 4.10312 19.8874 4.11716 19.8843C4.17486 19.8749 4.23256 19.8655 4.28871 19.8546C4.30118 19.8515 4.31366 19.8499 4.32458 19.8484C4.57878 19.8093 4.83766 19.7891 5.10278 19.7891C7.91929 19.7891 10.2056 22.0753 10.2056 24.8953Z" fill="white"/>
<path d="M10.2071 5.12582C10.2071 7.94739 7.92241 10.2337 5.10434 10.2337C4.60529 10.2337 4.12496 10.1619 3.66957 10.0292C1.54861 9.40811 0 7.44799 0 5.12582C0 3.77434 0.524002 2.54458 1.38174 1.63163C2.31278 0.63909 3.63526 0.0195312 5.10278 0.0195312C7.92085 0.0195312 10.2071 2.30581 10.2071 5.12582Z" fill="white"/>
</svg>
